<svg width="32" height="32" viewBox="0 0 32 32" fill="none" xmlns="http://www.w3.org/2000/svg">
<path d="M15.1111 32C23.4567 32 30.2222 25.2345 30.2222 16.8889C30.2222 8.54325 23.4567 1.77777 15.1111 1.77777C6.76547 1.77777 0 8.54325 0 16.8889C0 25.2345 6.76547 32 15.1111 32Z" fill="#FFCC4D"/>
<path d="M15.9991 25.3333C16.9809 25.3333 17.7769 24.3384 17.7769 23.1111C17.7769 21.8838 16.9809 20.8889 15.9991 20.8889C15.0173 20.8889 14.2213 21.8838 14.2213 23.1111C14.2213 24.3384 15.0173 25.3333 15.9991 25.3333Z" fill="#664500"/>
<path d="M7.20973 19.0071C7.04796 19.0071 6.88351 18.9626 6.73684 18.8702C6.32173 18.6088 6.19729 18.0604 6.45862 17.6444C7.27284 16.3528 9.7484 14.1439 13.2942 15.0115C13.7706 15.1279 14.0622 15.6097 13.9457 16.0862C13.8284 16.5626 13.3448 16.8524 12.8711 16.7377C9.66751 15.9537 7.9804 18.5653 7.96351 18.5919C7.79373 18.8604 7.50484 19.0071 7.20973 19.0071ZM17.8524 15.6808C17.5946 15.6808 17.3404 15.5697 17.1644 15.3555C16.8533 14.9759 16.9084 14.4151 17.2888 14.1039C20.112 11.7893 23.2995 12.7155 24.5911 13.5297C25.0062 13.7911 25.1306 14.3404 24.8684 14.7555C24.608 15.1688 24.0613 15.2951 23.6453 15.0355C23.5226 14.9608 20.9324 13.4151 18.4151 15.4791C18.2497 15.6151 18.0506 15.6808 17.8524 15.6808Z" fill="#664500"/>
<path d="M11.8631 27.7982C11.8027 27.7982 11.7414 27.7902 11.6809 27.7733C11.3271 27.6729 11.1209 27.3049 11.2214 26.9502C11.6098 25.5813 11.4507 24.2578 10.7858 23.3182C10.344 22.6942 9.71469 22.3129 9.05869 22.2711C8.69069 22.2489 8.41158 21.9315 8.43469 21.5644C8.4578 21.1973 8.77335 20.8969 9.14135 20.9413C10.2018 21.0071 11.1974 21.5929 11.8729 22.5475C12.7716 23.8178 13.0018 25.5547 12.5031 27.3129C12.4205 27.6071 12.1529 27.7982 11.8631 27.7982ZM21.6738 25.0773C21.5476 25.0773 21.4205 25.0418 21.3076 24.9671C20.2702 24.2827 19.6898 23.0853 19.7147 21.6827C19.7405 20.2293 20.4338 18.88 21.4782 18.2435C21.792 18.0515 22.2018 18.1511 22.3938 18.4667C22.5858 18.7813 22.4862 19.1902 22.1707 19.3822C21.5174 19.7804 21.0649 20.7147 21.0471 21.7058C21.0294 22.6435 21.3929 23.4267 22.0409 23.8542C22.3485 24.0569 22.4329 24.4702 22.2302 24.7778C22.1022 24.9724 21.8907 25.0773 21.6738 25.0773Z" fill="#E2A62D"/>
<path d="M15.2702 2.41775C15.2319 2.3742 15.1724 2.3502 15.1022 2.33686C15.1022 2.33686 0.947502 -0.350249 0.335057 0.190195C-0.276498 0.731528 0.657724 15.1093 0.657724 15.1093C0.662168 15.1813 0.678168 15.2426 0.717279 15.2862C1.25417 15.8942 4.94661 13.5049 8.96528 9.95197C12.9848 6.3982 15.8071 3.02575 15.2702 2.41775Z" fill="#DD2E44"/>
<path d="M0.310267 0.240897C0.296934 0.267564 0.285378 0.304008 0.276489 0.35023C0.417823 1.5689 1.78316 11.5965 2.63382 14.7307C3.91027 14.0169 5.20716 13.0471 6.73071 11.8391C5.43649 9.47023 1.02938 0.129786 0.310267 0.240897Z" fill="#EA596E"/>
<path d="M26.5795 25.9813L17.1813 24.8231C16.1768 24.7324 14.4106 24.7236 14.5013 23.1324C14.584 21.6898 16.3146 21.912 17.5937 22.1013L27.0497 23.6782L26.5795 25.9813Z" fill="#3B88C3"/>
<path d="M27.0489 23.6792L23.296 23.0356C22.8569 22.9565 22.4658 23.6107 22.4462 24.3032C22.424 25.0729 22.648 25.4623 23.0915 25.5529L26.7751 26.008L27.0489 23.6792Z" fill="#88C9F9"/>
<path d="M31.0383 23.4142L28.7076 25.5573L24.5414 21.0266L26.8721 18.8835C28.0818 17.7706 29.9823 17.8506 31.0952 19.0604L31.2152 19.1911C32.3272 20.4018 32.248 22.3013 31.0383 23.4142Z" fill="#3B88C3"/>
<path d="M28.7061 25.5586C29.7072 24.6382 29.5861 22.8778 28.4358 21.6267C27.2855 20.3756 25.5415 20.1075 24.5404 21.0279C23.5394 21.9483 23.6604 23.7087 24.8108 24.9598C25.9611 26.2109 27.7051 26.479 28.7061 25.5586Z" fill="#88C9F9"/>
<path d="M27.8729 24.6523C28.3734 24.1921 28.2197 23.2106 27.5295 22.46C26.8394 21.7094 25.8742 21.474 25.3737 21.9342C24.8732 22.3944 25.0269 23.3759 25.717 24.1265C26.4071 24.8771 27.3723 25.1125 27.8729 24.6523Z" fill="#226699"/>
<path d="M2.22225 31.1111C2.95863 31.1111 3.55558 30.5142 3.55558 29.7778C3.55558 29.0414 2.95863 28.4444 2.22225 28.4444C1.48587 28.4444 0.888916 29.0414 0.888916 29.7778C0.888916 30.5142 1.48587 31.1111 2.22225 31.1111Z" fill="#55ACEE"/>
<path d="M25.7778 3.55556C26.7596 3.55556 27.5556 2.75962 27.5556 1.77778C27.5556 0.795938 26.7596 0 25.7778 0C24.7959 0 24 0.795938 24 1.77778C24 2.75962 24.7959 3.55556 25.7778 3.55556Z" fill="#55ACEE"/>
<path d="M4.32354 25.9964L2.24532 21.0044L0.366211 26.3778L4.32354 25.9964ZM23.1111 4.44444L19.5555 5.33333L20.4444 1.77777L23.1111 4.44444Z" fill="#EA596E"/>
<path d="M28.4436 11.5556L32 7.11022L29.3334 5.33333L28.4436 11.5556Z" fill="#77B255"/>
</svg>
