<svg width="16" height="16" viewBox="0 0 16 16" fill="none" xmlns="http://www.w3.org/2000/svg">
<path fill-rule="evenodd" clip-rule="evenodd" d="M16 1.14286C16 1.44596 15.9064 1.73665 15.7397 1.95098C15.573 2.16531 15.3469 2.28571 15.1111 2.28571H0.888889C0.653141 2.28571 0.427048 2.16531 0.260349 1.95098C0.0936505 1.73665 0 1.44596 0 1.14286C0 0.839753 0.0936505 0.549062 0.260349 0.334735C0.427048 0.120408 0.653141 0 0.888889 0H15.1111C15.3469 0 15.573 0.120408 15.7397 0.334735C15.9064 0.549062 16 0.839753 16 1.14286ZM16 8C16 8.30311 15.9064 8.59379 15.7397 8.80812C15.573 9.02245 15.3469 9.14286 15.1111 9.14286H0.888889C0.653141 9.14286 0.427048 9.02245 0.260349 8.80812C0.0936505 8.59379 0 8.30311 0 8C0 7.6969 0.0936505 7.40621 0.260349 7.19188C0.427048 6.97755 0.653141 6.85714 0.888889 6.85714H15.1111C15.3469 6.85714 15.573 6.97755 15.7397 7.19188C15.9064 7.40621 16 7.6969 16 8ZM15.1111 16C15.3469 16 15.573 15.8796 15.7397 15.6653C15.9064 15.4509 16 15.1602 16 14.8571C16 14.554 15.9064 14.2633 15.7397 14.049C15.573 13.8347 15.3469 13.7143 15.1111 13.7143H0.888889C0.653141 13.7143 0.427048 13.8347 0.260349 14.049C0.0936505 14.2633 0 14.554 0 14.8571C0 15.1602 0.0936505 15.4509 0.260349 15.6653C0.427048 15.8796 0.653141 16 0.888889 16H15.1111Z" fill="url(#paint0_linear_91_42)"/>
<defs>
<linearGradient id="paint0_linear_91_42" x1="0" y1="0" x2="16" y2="16" gradientUnits="userSpaceOnUse">
<stop stop-color="#FEFCFD"/>
<stop offset="1" stop-color="#BFCDE0"/>
</linearGradient>
</defs>
</svg>
