<svg width="48" height="48" viewBox="0 0 48 48" fill="none" xmlns="http://www.w3.org/2000/svg">
<path fill-rule="evenodd" clip-rule="evenodd" d="M6 21C6 17.0218 7.58036 13.2064 10.3934 10.3934C13.2064 7.58035 17.0218 6 21 6C24.9783 6 28.7936 7.58035 31.6066 10.3934C34.4197 13.2064 36 17.0218 36 21C36 24.9782 34.4197 28.7936 31.6066 31.6066C28.7936 34.4196 24.9783 36 21 36C17.0218 36 13.2064 34.4196 10.3934 31.6066C7.58036 28.7936 6 24.9782 6 21ZM21 0C17.6725 0 14.3927 0.790717 11.4307 2.30699C8.46877 3.82326 5.90953 6.02168 3.96392 8.72108C2.0183 11.4205 0.741994 14.5436 0.24018 17.833C-0.261634 21.1225 0.025409 24.484 1.07765 27.6408C2.1299 30.7975 3.91722 33.659 6.29233 35.9895C8.66744 38.3199 11.5623 40.0526 14.7385 41.0448C17.9146 42.0369 21.2811 42.2601 24.5604 41.696C27.8397 41.1318 30.938 39.7965 33.6 37.8C33.6853 37.9135 33.7785 38.0207 33.879 38.121L42.879 47.121C43.4448 47.6675 44.2026 47.9699 44.9892 47.963C45.7758 47.9562 46.5282 47.6407 47.0845 47.0845C47.6407 46.5282 47.9562 45.7758 47.963 44.9892C47.9699 44.2026 47.6675 43.4448 47.121 42.879L38.121 33.879C38.0207 33.7785 37.9135 33.6853 37.8 33.6C40.14 30.48 41.5649 26.7701 41.9151 22.8859C42.2654 19.0017 41.5271 15.0967 39.783 11.6085C38.0389 8.12029 35.3579 5.18666 32.0404 3.13633C28.7229 1.08601 24.9 0 21 0Z" fill="#FEFCFD"/>
</svg>
