<svg width="43" height="41" viewBox="0 0 43 41" fill="none" xmlns="http://www.w3.org/2000/svg">
<path d="M2.0158 14.3999C0.374253 14.6371 -0.281952 16.6542 0.905893 17.8118L9.00729 25.7065C9.47854 26.1657 9.69376 26.8274 9.58285 27.476L7.68348 38.5831C7.40399 40.2175 9.12037 41.4626 10.5873 40.6896L20.5276 35.4513C21.1112 35.1438 21.8088 35.1438 22.3924 35.4513L32.3327 40.6896C33.7996 41.4626 35.516 40.2175 35.2365 38.5831L33.3372 27.476C33.2262 26.8274 33.4415 26.1657 33.9127 25.7065L42.0141 17.8118C43.2019 16.6542 42.5457 14.6371 40.9042 14.3999L29.7593 12.7901C29.1086 12.6961 28.5456 12.2883 28.2535 11.6992L23.2518 1.61318C22.5169 0.131243 20.4031 0.131245 19.6682 1.61318L14.6665 11.6992C14.3744 12.2883 13.8114 12.6961 13.1607 12.7901L2.0158 14.3999Z" fill="url(#paint0_linear_130_3)"/>
<defs>
<linearGradient id="paint0_linear_130_3" x1="21" y1="43" x2="21" y2="-2" gradientUnits="userSpaceOnUse">
<stop stop-color="#FFD02C"/>
<stop offset="0.397681" stop-color="#FFD02C"/>
<stop offset="1" stop-color="white"/>
</linearGradient>
</defs>
</svg>
