<svg width="22" height="22" viewBox="0 0 22 22" fill="none" xmlns="http://www.w3.org/2000/svg">
<path fill-rule="evenodd" clip-rule="evenodd" d="M21.5883 2.48558C21.8555 2.20896 22.0033 1.83848 21.9999 1.45392C21.9966 1.06937 21.8424 0.701509 21.5704 0.429577C21.2985 0.157645 20.9306 0.00339712 20.5461 5.54436e-05C20.1615 -0.00328624 19.791 0.144546 19.5144 0.411711L11.018 8.90811L2.52162 0.411711C2.24501 0.144546 1.87452 -0.00328624 1.48997 5.54436e-05C1.10541 0.00339712 0.737554 0.157645 0.465622 0.429577C0.19369 0.701509 0.0394421 1.06937 0.0361005 1.45392C0.0327588 1.83848 0.180591 2.20896 0.447756 2.48558L8.94416 10.982L0.447756 19.4784C0.307675 19.6137 0.195941 19.7755 0.119074 19.9545C0.0422075 20.1334 0.00174764 20.3258 5.5377e-05 20.5206C-0.00163689 20.7153 0.035472 20.9085 0.109217 21.0887C0.182963 21.269 0.291867 21.4327 0.429576 21.5704C0.567286 21.7081 0.731042 21.817 0.91129 21.8908C1.09154 21.9645 1.28467 22.0016 1.47941 21.9999C1.67415 21.9983 1.86661 21.9578 2.04555 21.8809C2.22449 21.8041 2.38633 21.6923 2.52162 21.5522L11.018 13.0558L19.5144 21.5522C19.791 21.8194 20.1615 21.9672 20.5461 21.9639C20.9306 21.9606 21.2985 21.8063 21.5704 21.5344C21.8424 21.2624 21.9966 20.8946 21.9999 20.51C22.0033 20.1255 21.8555 19.755 21.5883 19.4784L13.0919 10.982L21.5883 2.48558Z" fill="#EEECED"/>
</svg>
