<svg width="24" height="22" viewBox="0 0 24 22" fill="none" xmlns="http://www.w3.org/2000/svg">
<path d="M2.12311 10.4788L2.12316 10.4788L2.11708 10.4726C1.4117 9.76209 0.93708 8.9304 0.687751 7.97009C0.437248 7.00527 0.437745 6.05392 0.68727 5.10765C0.936098 4.16402 1.4103 3.33938 2.11708 2.62742C2.82244 1.91689 3.64733 1.43949 4.59891 1.18879C5.55503 0.936896 6.49754 0.937407 7.4352 1.1883C8.36315 1.43659 9.17574 1.90825 9.87883 2.61128L11.614 4.71837L12 5.18706L12.386 4.71837L14.1246 2.60713C14.7917 1.91038 15.6003 1.43857 16.5611 1.18926C17.535 0.936573 18.4862 0.937572 19.4232 1.1883C20.3582 1.43849 21.1762 1.91546 21.8829 2.62742C22.5897 3.33938 23.0639 4.16402 23.3127 5.10765C23.5623 6.05392 23.5628 7.00527 23.3123 7.97009C23.0629 8.9304 22.5883 9.76209 21.8829 10.4726L21.8829 10.4726L21.8769 10.4788L12 20.7776L2.12311 10.4788Z" fill="#FEFCFD" stroke="#FEFCFD"/>
</svg>
