<svg width="22" height="22" viewBox="0 0 22 22" fill="none" xmlns="http://www.w3.org/2000/svg">
<path fill-rule="evenodd" clip-rule="evenodd" d="M22 1.57143C22 1.9882 21.8712 2.3879 21.642 2.6826C21.4128 2.9773 21.1019 3.14286 20.7778 3.14286H1.22222C0.898069 3.14286 0.587192 2.9773 0.357981 2.6826C0.128769 2.3879 0 1.9882 0 1.57143C0 1.15466 0.128769 0.754961 0.357981 0.460261C0.587192 0.165561 0.898069 0 1.22222 0H20.7778C21.1019 0 21.4128 0.165561 21.642 0.460261C21.8712 0.754961 22 1.15466 22 1.57143ZM22 11C22 11.4168 21.8712 11.8165 21.642 12.1112C21.4128 12.4059 21.1019 12.5714 20.7778 12.5714H1.22222C0.898069 12.5714 0.587192 12.4059 0.357981 12.1112C0.128769 11.8165 0 11.4168 0 11C0 10.5832 0.128769 10.1835 0.357981 9.88883C0.587192 9.59413 0.898069 9.42857 1.22222 9.42857H20.7778C21.1019 9.42857 21.4128 9.59413 21.642 9.88883C21.8712 10.1835 22 10.5832 22 11ZM20.7778 22C21.1019 22 21.4128 21.8344 21.642 21.5397C21.8712 21.245 22 20.8453 22 20.4286C22 20.0118 21.8712 19.6121 21.642 19.3174C21.4128 19.0227 21.1019 18.8571 20.7778 18.8571H1.22222C0.898069 18.8571 0.587192 19.0227 0.357981 19.3174C0.128769 19.6121 0 20.0118 0 20.4286C0 20.8453 0.128769 21.245 0.357981 21.5397C0.587192 21.8344 0.898069 22 1.22222 22H20.7778Z" fill="#FEFCFD" fill-opacity="0.75"/>
</svg>
