<svg width="24" height="24" viewBox="0 0 24 24" fill="none" xmlns="http://www.w3.org/2000/svg">
<path d="M22.4658 0.193506L1.1158 9.99846C-0.324994 10.621 -0.324994 11.7104 0.85384 12.0217L6.22408 14.0449L8.31978 21.5154C8.58175 22.2936 8.45077 22.6048 9.10567 22.6048C9.6296 22.6048 9.89156 22.2936 10.1535 21.9823C10.2845 21.8267 11.4633 20.4259 12.7732 18.8696L18.2744 23.6943C19.3222 24.3168 19.9771 24.0055 20.2391 22.6048L23.9066 2.21675C24.2995 0.504774 23.3827 -0.42903 22.4658 0.193506ZM19.7152 4.86253L9.49862 15.9126L9.10567 21.0485L7.00997 13.578L19.0603 4.55126C19.5842 4.08436 20.1081 4.39563 19.7152 4.86253Z" fill="#FEFCFD"/>
</svg>
