<svg width="37" height="36" viewBox="0 0 37 36" fill="none" xmlns="http://www.w3.org/2000/svg">
<path d="M18.5 36C28.4411 36 36.5 27.9411 36.5 18C36.5 8.05887 28.4411 0 18.5 0C8.55887 0 0.5 8.05887 0.5 18C0.5 27.9411 8.55887 36 18.5 36Z" fill="#FFCC4D"/>
<path d="M11.015 23.621C11.06 23.8 12.183 28 18.5 28C24.818 28 25.94 23.8 25.985 23.621C26.04 23.404 25.942 23.179 25.748 23.067C25.553 22.956 25.309 22.989 25.148 23.144C25.129 23.163 23.194 25 18.5 25C13.806 25 11.87 23.163 11.852 23.145C11.756 23.05 11.628 23 11.5 23C11.416 23 11.331 23.021 11.254 23.064C11.058 23.176 10.96 23.403 11.015 23.621Z" fill="#664500"/>
<path d="M12.5 17C13.8807 17 15 15.433 15 13.5C15 11.567 13.8807 10 12.5 10C11.1193 10 10 11.567 10 13.5C10 15.433 11.1193 17 12.5 17Z" fill="#664500"/>
<path d="M24.5 17C25.8807 17 27 15.433 27 13.5C27 11.567 25.8807 10 24.5 10C23.1193 10 22 11.567 22 13.5C22 15.433 23.1193 17 24.5 17Z" fill="#664500"/>
</svg>
