<svg width="32" height="32" viewBox="0 0 32 32" fill="none" xmlns="http://www.w3.org/2000/svg">
<path d="M15.1111 32C23.4567 32 30.2222 25.2345 30.2222 16.8889C30.2222 8.54325 23.4567 1.77777 15.1111 1.77777C6.76547 1.77777 0 8.54325 0 16.8889C0 25.2345 6.76547 32 15.1111 32Z" fill="#FFCC4D"/>
<path d="M15.9992 25.3334C16.9811 25.3334 17.777 24.3384 17.777 23.1111C17.777 21.8838 16.9811 20.8889 15.9992 20.8889C15.0174 20.8889 14.2214 21.8838 14.2214 23.1111C14.2214 24.3384 15.0174 25.3334 15.9992 25.3334Z" fill="#664500"/>
<path d="M7.20986 19.0071C7.04808 19.0071 6.88363 18.9626 6.73697 18.8702C6.32186 18.6089 6.19741 18.0604 6.45874 17.6444C7.27297 16.3529 9.74852 14.144 13.2943 15.0115C13.7707 15.128 14.0623 15.6098 13.9459 16.0862C13.8285 16.5626 13.345 16.8524 12.8712 16.7378C9.66763 15.9538 7.98052 18.5653 7.96363 18.592C7.79386 18.8604 7.50497 19.0071 7.20986 19.0071ZM17.8525 15.6809C17.5947 15.6809 17.3405 15.5698 17.1645 15.3555C16.8534 14.976 16.9085 14.4151 17.289 14.104C20.1121 11.7893 23.2996 12.7155 24.5912 13.5298C25.0063 13.7911 25.1307 14.3404 24.8685 14.7555C24.6081 15.1689 24.0614 15.2951 23.6454 15.0355C23.5227 14.9609 20.9325 13.4151 18.4152 15.4791C18.2499 15.6151 18.0507 15.6809 17.8525 15.6809Z" fill="#664500"/>
<path d="M11.8631 27.7982C11.8027 27.7982 11.7414 27.7902 11.6809 27.7733C11.3271 27.6729 11.1209 27.3049 11.2214 26.9502C11.6098 25.5813 11.4507 24.2578 10.7858 23.3182C10.344 22.6942 9.71469 22.3129 9.05869 22.2711C8.69069 22.2489 8.41158 21.9315 8.43469 21.5644C8.4578 21.1973 8.77335 20.8969 9.14135 20.9413C10.2018 21.0071 11.1974 21.5929 11.8729 22.5475C12.7716 23.8177 13.0018 25.5546 12.5031 27.3129C12.4205 27.6071 12.1529 27.7982 11.8631 27.7982ZM21.6738 25.0773C21.5476 25.0773 21.4205 25.0417 21.3076 24.9671C20.2702 24.2826 19.6898 23.0853 19.7147 21.6826C19.7405 20.2293 20.4338 18.88 21.4782 18.2435C21.792 18.0515 22.2018 18.1511 22.3938 18.4666C22.5858 18.7813 22.4862 19.1902 22.1707 19.3822C21.5174 19.7804 21.0649 20.7146 21.0471 21.7058C21.0294 22.6435 21.3929 23.4266 22.0409 23.8542C22.3485 24.0569 22.4329 24.4702 22.2302 24.7778C22.1022 24.9724 21.8907 25.0773 21.6738 25.0773Z" fill="#E2A62D"/>
<path d="M15.2702 2.41778C15.2319 2.37423 15.1724 2.35023 15.1022 2.33689C15.1022 2.33689 0.947502 -0.350219 0.335057 0.190226C-0.276498 0.731559 0.657724 15.1093 0.657724 15.1093C0.662168 15.1813 0.678168 15.2427 0.717279 15.2862C1.25417 15.8942 4.94661 13.5049 8.96528 9.952C12.9848 6.39823 15.8071 3.02578 15.2702 2.41778Z" fill="#DD2E44"/>
<path d="M0.310145 0.240912C0.296812 0.267579 0.285256 0.304023 0.276367 0.350246C0.417701 1.56891 1.78303 11.5965 2.6337 14.7307C3.91015 14.0169 5.20703 13.0471 6.73059 11.8391C5.43637 9.47025 1.02926 0.129801 0.310145 0.240912Z" fill="#EA596E"/>
<path d="M26.5796 25.9813L17.1814 24.8231C16.177 24.7324 14.4107 24.7235 14.5014 23.1324C14.5841 21.6898 16.3147 21.912 17.5939 22.1013L27.0499 23.6782L26.5796 25.9813Z" fill="#3B88C3"/>
<path d="M27.049 23.6791L23.2961 23.0356C22.857 22.9565 22.4659 23.6107 22.4463 24.3031C22.4241 25.0729 22.6481 25.4622 23.0917 25.5529L26.7752 26.008L27.049 23.6791Z" fill="#88C9F9"/>
<path d="M31.0381 23.4142L28.7075 25.5573L24.5413 21.0267L26.8719 18.8835C28.0817 17.7707 29.9821 17.8507 31.095 19.0604L31.215 19.1911C32.327 20.4018 32.2479 22.3013 31.0381 23.4142Z" fill="#3B88C3"/>
<path d="M28.706 25.5586C29.707 24.6382 29.586 22.8778 28.4357 21.6267C27.2854 20.3756 25.5413 20.1075 24.5403 21.0279C23.5393 21.9483 23.6603 23.7087 24.8106 24.9598C25.961 26.2109 27.705 26.479 28.706 25.5586Z" fill="#88C9F9"/>
<path d="M27.873 24.6523C28.3735 24.1921 28.2198 23.2106 27.5296 22.46C26.8395 21.7094 25.8743 21.474 25.3738 21.9342C24.8733 22.3944 25.027 23.3759 25.7171 24.1265C26.4073 24.8771 27.3725 25.1125 27.873 24.6523Z" fill="#226699"/>
<path d="M2.22225 31.1111C2.95863 31.1111 3.55558 30.5142 3.55558 29.7778C3.55558 29.0414 2.95863 28.4445 2.22225 28.4445C1.48587 28.4445 0.888916 29.0414 0.888916 29.7778C0.888916 30.5142 1.48587 31.1111 2.22225 31.1111Z" fill="#55ACEE"/>
<path d="M25.7778 3.55556C26.7596 3.55556 27.5556 2.75962 27.5556 1.77778C27.5556 0.795938 26.7596 0 25.7778 0C24.7959 0 24 0.795938 24 1.77778C24 2.75962 24.7959 3.55556 25.7778 3.55556Z" fill="#55ACEE"/>
<path d="M4.32354 25.9964L2.24532 21.0044L0.366211 26.3778L4.32354 25.9964ZM23.1111 4.44444L19.5555 5.33333L20.4444 1.77777L23.1111 4.44444Z" fill="#EA596E"/>
<path d="M28.4436 11.5555L32 7.1102L29.3334 5.33331L28.4436 11.5555Z" fill="#77B255"/>
</svg>
