<svg width="24" height="24" viewBox="0 0 24 24" fill="none" xmlns="http://www.w3.org/2000/svg">
<path d="M24 12C24 18.6273 18.6273 24 12 24C5.37333 24 0 18.6273 0 12C0 5.37333 5.37333 0 12 0C18.6273 0 24 5.37333 24 12Z" fill="#FFCC4D"/>
<path d="M7.66667 12C8.58714 12 9.33333 10.3584 9.33333 8.33334C9.33333 6.30829 8.58714 4.66667 7.66667 4.66667C6.74619 4.66667 6 6.30829 6 8.33334C6 10.3584 6.74619 12 7.66667 12Z" fill="#664500"/>
<path d="M16.3337 12C17.2541 12 18.0003 10.3584 18.0003 8.33334C18.0003 6.30829 17.2541 4.66667 16.3337 4.66667C15.4132 4.66667 14.667 6.30829 14.667 8.33334C14.667 10.3584 15.4132 12 16.3337 12Z" fill="#664500"/>
<path d="M12.0003 14.6667C9.58499 14.6667 7.98233 14.3853 6.00033 14C5.54766 13.9127 4.66699 14 4.66699 15.3333C4.66699 18 7.73033 21.3333 12.0003 21.3333C16.2697 21.3333 19.3337 18 19.3337 15.3333C19.3337 14 18.453 13.912 18.0003 14C16.0183 14.3853 14.4157 14.6667 12.0003 14.6667Z" fill="#664500"/>
<path d="M6 15.3333C6 15.3333 8 16 12 16C16 16 18 15.3333 18 15.3333C18 15.3333 16.6667 18 12 18C7.33333 18 6 15.3333 6 15.3333Z" fill="white"/>
</svg>
