<svg width="37" height="36" viewBox="0 0 37 36" fill="none" xmlns="http://www.w3.org/2000/svg">
<path d="M36.5 18C36.5 27.941 28.441 36 18.5 36C8.56 36 0.5 27.941 0.5 18C0.5 8.06 8.56 0 18.5 0C28.441 0 36.5 8.06 36.5 18Z" fill="#FFCC4D"/>
<path d="M12 18C13.3807 18 14.5 16.433 14.5 14.5C14.5 12.567 13.3807 11 12 11C10.6193 11 9.5 12.567 9.5 14.5C9.5 16.433 10.6193 18 12 18Z" fill="#664500"/>
<path d="M25 18C26.3807 18 27.5 16.433 27.5 14.5C27.5 12.567 26.3807 11 25 11C23.6193 11 22.5 12.567 22.5 14.5C22.5 16.433 23.6193 18 25 18Z" fill="#664500"/>
<path d="M9.16499 27.871C9.34299 28.032 9.60899 28.042 9.79999 27.9C9.83899 27.871 13.722 25 18.5 25C23.266 25 27.162 27.871 27.2 27.9C27.391 28.042 27.657 28.03 27.835 27.871C28.012 27.711 28.052 27.447 27.929 27.243C27.8 27.029 24.712 22 18.5 22C12.288 22 9.19899 27.028 9.07099 27.243C8.94799 27.448 8.98699 27.711 9.16499 27.871Z" fill="#664500"/>
</svg>
