<svg width="28" height="29" viewBox="0 0 28 29" fill="none" xmlns="http://www.w3.org/2000/svg">
<path d="M1.8499 9.60314C0.240164 9.84786 -0.418173 11.8108 0.718493 12.9766L5.31667 17.6927C5.75933 18.1467 5.96047 18.7837 5.85878 19.4096L4.79928 25.9306C4.53142 27.5793 6.28281 28.8105 7.74345 28.0004L13.03 25.0683C13.6334 24.7336 14.3666 24.7336 14.9701 25.0683L20.2566 28.0004C21.7172 28.8105 23.4686 27.5792 23.2007 25.9306L22.1412 19.4096C22.0395 18.7837 22.2407 18.1467 22.6833 17.6927L27.2815 12.9766C28.4182 11.8108 27.7598 9.84786 26.1501 9.60314L20.0056 8.66901C19.3467 8.56884 18.781 8.14706 18.4969 7.54418L15.8092 1.83987C15.0883 0.309809 12.9117 0.309812 12.1908 1.83987L9.50307 7.54418C9.21901 8.14706 8.65331 8.56884 7.99444 8.66901L1.8499 9.60314Z" fill="url(#paint0_linear_136_192)"/>
<defs>
<linearGradient id="paint0_linear_136_192" x1="14" y1="-2" x2="14" y2="30" gradientUnits="userSpaceOnUse">
<stop stop-color="#FEFCFD"/>
<stop offset="1" stop-color="#F6AE2D"/>
</linearGradient>
</defs>
</svg>
